<svg xmlns="http://www.w3.org/2000/svg" xmlns:xlink="http://www.w3.org/1999/xlink" width="48" zoomAndPan="magnify" viewBox="0 0 36 36.000001" height="48" preserveAspectRatio="xMidYMid meet" version="1.0"><defs><g/><clipPath id="40ed9ecad5"><path d="M 4.246094 10 L 16.652344 10 L 16.652344 23.4375 L 4.246094 23.4375 Z M 4.246094 10 " clip-rule="nonzero"/></clipPath></defs><path fill="#1ed891" d="M 12.515625 15.128906 C 12.753906 15.359375 13.132812 15.359375 13.363281 15.125 C 13.597656 14.886719 13.59375 14.507812 13.359375 14.273438 C 11.957031 12.878906 9.683594 12.886719 8.289062 14.296875 C 6.898438 15.707031 6.910156 17.988281 8.3125 19.386719 C 9.015625 20.082031 9.933594 20.429688 10.851562 20.425781 C 11.769531 20.421875 12.6875 20.066406 13.382812 19.363281 C 13.617188 19.125 13.613281 18.746094 13.378906 18.511719 C 13.144531 18.28125 12.765625 18.28125 12.53125 18.515625 C 11.605469 19.457031 10.089844 19.460938 9.15625 18.53125 C 8.222656 17.601562 8.214844 16.082031 9.140625 15.140625 C 10.066406 14.203125 11.582031 14.195312 12.515625 15.128906 Z M 12.515625 15.128906 " fill-opacity="1" fill-rule="nonzero"/><g clip-path="url(#40ed9ecad5)"><path fill="#1ed891" d="M 16.378906 19.351562 C 16.375 18.550781 16.058594 17.796875 15.492188 17.234375 C 15.257812 17 15.257812 16.617188 15.488281 16.382812 C 16.648438 15.207031 16.640625 13.304688 15.46875 12.136719 C 12.890625 9.574219 8.714844 9.59375 6.160156 12.179688 C 4.925781 13.433594 4.246094 15.097656 4.257812 16.859375 C 4.265625 18.625 4.957031 20.28125 6.203125 21.523438 C 7.492188 22.804688 9.179688 23.441406 10.867188 23.433594 C 12.550781 23.425781 14.234375 22.773438 15.511719 21.480469 C 16.074219 20.910156 16.382812 20.152344 16.378906 19.351562 Z M 14.660156 20.632812 C 12.570312 22.75 9.15625 22.765625 7.046875 20.667969 C 6.023438 19.652344 5.460938 18.296875 5.453125 16.855469 C 5.445312 15.410156 6 14.050781 7.011719 13.027344 C 9.101562 10.910156 12.515625 10.894531 14.625 12.992188 C 15.328125 13.691406 15.335938 14.832031 14.636719 15.539062 C 13.941406 16.242188 13.945312 17.386719 14.648438 18.085938 C 14.988281 18.425781 15.179688 18.875 15.179688 19.359375 C 15.183594 19.839844 15 20.292969 14.660156 20.632812 " fill-opacity="1" fill-rule="nonzero"/></g><path fill="#1ed891" d="M 10.75 17.804688 C 10.621094 17.804688 10.496094 17.78125 10.378906 17.730469 C 10.257812 17.683594 10.152344 17.609375 10.0625 17.519531 C 9.972656 17.429688 9.902344 17.324219 9.851562 17.203125 C 9.800781 17.082031 9.777344 16.960938 9.777344 16.828125 C 9.777344 16.699219 9.800781 16.574219 9.851562 16.457031 C 9.902344 16.335938 9.972656 16.230469 10.0625 16.140625 C 10.152344 16.046875 10.257812 15.976562 10.378906 15.929688 C 10.496094 15.878906 10.621094 15.855469 10.75 15.855469 C 10.878906 15.855469 11.003906 15.878906 11.121094 15.929688 C 11.242188 15.976562 11.347656 16.046875 11.4375 16.140625 C 11.527344 16.230469 11.597656 16.335938 11.648438 16.457031 C 11.695312 16.574219 11.722656 16.699219 11.722656 16.828125 C 11.722656 16.960938 11.695312 17.082031 11.648438 17.203125 C 11.597656 17.324219 11.527344 17.429688 11.4375 17.519531 C 11.347656 17.609375 11.242188 17.683594 11.121094 17.730469 C 11.003906 17.78125 10.878906 17.804688 10.75 17.804688 Z M 10.75 17.804688 " fill-opacity="1" fill-rule="nonzero"/><g fill="#a6a6a6" fill-opacity="1"><g transform="translate(16.666162, 17.174283)"><g><path d="M 1.484375 0.078125 C 1.179688 0.078125 0.925781 0.03125 0.71875 -0.0625 C 0.507812 -0.164062 0.347656 -0.304688 0.234375 -0.484375 C 0.128906 -0.671875 0.078125 -0.882812 0.078125 -1.125 L 0.078125 -1.234375 C 0.078125 -1.472656 0.128906 -1.679688 0.234375 -1.859375 C 0.347656 -2.035156 0.507812 -2.171875 0.71875 -2.265625 C 0.925781 -2.367188 1.179688 -2.421875 1.484375 -2.421875 C 1.785156 -2.421875 2.035156 -2.367188 2.234375 -2.265625 C 2.441406 -2.171875 2.597656 -2.035156 2.703125 -1.859375 C 2.804688 -1.679688 2.859375 -1.472656 2.859375 -1.234375 L 2.859375 -1.125 C 2.859375 -0.882812 2.804688 -0.671875 2.703125 -0.484375 C 2.597656 -0.304688 2.441406 -0.164062 2.234375 -0.0625 C 2.035156 0.03125 1.785156 0.078125 1.484375 0.078125 Z M 1.484375 -0.75 C 1.578125 -0.75 1.648438 -0.78125 1.703125 -0.84375 C 1.765625 -0.914062 1.796875 -1.03125 1.796875 -1.1875 C 1.796875 -1.332031 1.765625 -1.4375 1.703125 -1.5 C 1.648438 -1.5625 1.578125 -1.59375 1.484375 -1.59375 C 1.378906 -1.59375 1.296875 -1.5625 1.234375 -1.5 C 1.179688 -1.4375 1.15625 -1.332031 1.15625 -1.1875 C 1.15625 -1.03125 1.179688 -0.914062 1.234375 -0.84375 C 1.296875 -0.78125 1.378906 -0.75 1.484375 -0.75 Z M 1.484375 -0.75 "/></g></g></g><g fill="#a6a6a6" fill-opacity="1"><g transform="translate(19.617576, 17.174283)"><g><path d="M 1.796875 -1.9375 L 1.796875 -3.234375 L 2.859375 -3.234375 L 2.859375 0 L 2.328125 0 L 2 -0.71875 C 1.945312 -0.457031 1.835938 -0.257812 1.671875 -0.125 C 1.503906 0.0078125 1.304688 0.078125 1.078125 0.078125 C 0.890625 0.078125 0.71875 0.03125 0.5625 -0.0625 C 0.414062 -0.15625 0.296875 -0.289062 0.203125 -0.46875 C 0.117188 -0.65625 0.078125 -0.875 0.078125 -1.125 L 0.078125 -1.234375 C 0.078125 -1.484375 0.117188 -1.695312 0.203125 -1.875 C 0.296875 -2.050781 0.414062 -2.1875 0.5625 -2.28125 C 0.71875 -2.375 0.878906 -2.421875 1.046875 -2.421875 C 1.210938 -2.421875 1.359375 -2.378906 1.484375 -2.296875 C 1.617188 -2.222656 1.722656 -2.101562 1.796875 -1.9375 Z M 1.46875 -0.765625 C 1.570312 -0.765625 1.648438 -0.796875 1.703125 -0.859375 C 1.765625 -0.929688 1.796875 -1.035156 1.796875 -1.171875 C 1.796875 -1.316406 1.765625 -1.421875 1.703125 -1.484375 C 1.648438 -1.546875 1.570312 -1.578125 1.46875 -1.578125 C 1.375 -1.578125 1.296875 -1.546875 1.234375 -1.484375 C 1.179688 -1.421875 1.15625 -1.316406 1.15625 -1.171875 C 1.15625 -1.035156 1.179688 -0.929688 1.234375 -0.859375 C 1.296875 -0.796875 1.375 -0.765625 1.46875 -0.765625 Z M 1.46875 -0.765625 "/></g></g></g><g fill="#a6a6a6" fill-opacity="1"><g transform="translate(22.679943, 17.174283)"><g><path d="M 1.296875 -3.046875 C 1.296875 -3.191406 1.25 -3.304688 1.15625 -3.390625 C 1.0625 -3.484375 0.921875 -3.53125 0.734375 -3.53125 C 0.546875 -3.53125 0.40625 -3.484375 0.3125 -3.390625 C 0.21875 -3.304688 0.171875 -3.191406 0.171875 -3.046875 C 0.171875 -2.898438 0.21875 -2.785156 0.3125 -2.703125 C 0.40625 -2.617188 0.546875 -2.578125 0.734375 -2.578125 C 0.921875 -2.578125 1.0625 -2.617188 1.15625 -2.703125 C 1.25 -2.785156 1.296875 -2.898438 1.296875 -3.046875 Z M 1.265625 0 L 0.203125 0 L 0.203125 -2.359375 L 1.265625 -2.359375 Z M 1.265625 0 "/></g></g></g><g fill="#a6a6a6" fill-opacity="1"><g transform="translate(24.144554, 17.174283)"><g><path d="M 1.9375 -2.421875 C 2.207031 -2.421875 2.425781 -2.332031 2.59375 -2.15625 C 2.757812 -1.976562 2.84375 -1.722656 2.84375 -1.390625 L 2.84375 0 L 1.78125 0 L 1.78125 -1.171875 C 1.78125 -1.296875 1.757812 -1.382812 1.71875 -1.4375 C 1.675781 -1.488281 1.617188 -1.515625 1.546875 -1.515625 C 1.460938 -1.515625 1.394531 -1.484375 1.34375 -1.421875 C 1.289062 -1.359375 1.265625 -1.257812 1.265625 -1.125 L 1.265625 0 L 0.203125 0 L 0.203125 -2.359375 L 0.734375 -2.359375 L 1.0625 -1.640625 C 1.125 -1.910156 1.226562 -2.109375 1.375 -2.234375 C 1.53125 -2.359375 1.71875 -2.421875 1.9375 -2.421875 Z M 1.9375 -2.421875 "/></g></g></g><g fill="#a6a6a6" fill-opacity="1"><g transform="translate(27.149227, 17.174283)"><g><path d="M 3 0.03125 C 3 0.207031 2.953125 0.363281 2.859375 0.5 C 2.765625 0.644531 2.601562 0.753906 2.375 0.828125 C 2.144531 0.910156 1.828125 0.953125 1.421875 0.953125 C 1.160156 0.953125 0.945312 0.9375 0.78125 0.90625 C 0.613281 0.882812 0.484375 0.851562 0.390625 0.8125 C 0.296875 0.769531 0.234375 0.71875 0.203125 0.65625 C 0.171875 0.601562 0.15625 0.550781 0.15625 0.5 C 0.15625 0.40625 0.191406 0.320312 0.265625 0.25 C 0.335938 0.175781 0.476562 0.128906 0.6875 0.109375 C 0.488281 0.078125 0.34375 0.015625 0.25 -0.078125 C 0.15625 -0.179688 0.109375 -0.296875 0.109375 -0.421875 C 0.109375 -0.554688 0.148438 -0.671875 0.234375 -0.765625 C 0.316406 -0.867188 0.460938 -0.9375 0.671875 -0.96875 C 0.472656 -1.039062 0.332031 -1.132812 0.25 -1.25 C 0.164062 -1.363281 0.125 -1.492188 0.125 -1.640625 L 0.125 -1.65625 C 0.125 -1.800781 0.164062 -1.929688 0.25 -2.046875 C 0.332031 -2.160156 0.472656 -2.25 0.671875 -2.3125 C 0.867188 -2.382812 1.140625 -2.421875 1.484375 -2.421875 C 1.535156 -2.421875 1.582031 -2.421875 1.625 -2.421875 C 1.675781 -2.421875 1.722656 -2.421875 1.765625 -2.421875 C 1.785156 -2.703125 1.867188 -2.914062 2.015625 -3.0625 C 2.160156 -3.207031 2.335938 -3.28125 2.546875 -3.28125 C 2.617188 -3.28125 2.675781 -3.273438 2.71875 -3.265625 C 2.769531 -3.253906 2.804688 -3.25 2.828125 -3.25 L 2.828125 -2.4375 C 2.785156 -2.4375 2.734375 -2.4375 2.671875 -2.4375 C 2.609375 -2.445312 2.535156 -2.453125 2.453125 -2.453125 C 2.367188 -2.453125 2.300781 -2.441406 2.25 -2.421875 C 2.195312 -2.410156 2.160156 -2.390625 2.140625 -2.359375 C 2.390625 -2.304688 2.566406 -2.21875 2.671875 -2.09375 C 2.773438 -1.96875 2.828125 -1.820312 2.828125 -1.65625 L 2.828125 -1.625 C 2.828125 -1.488281 2.785156 -1.359375 2.703125 -1.234375 C 2.617188 -1.117188 2.476562 -1.023438 2.28125 -0.953125 C 2.09375 -0.890625 1.828125 -0.859375 1.484375 -0.859375 L 1.15625 -0.859375 C 1.082031 -0.859375 1.03125 -0.847656 1 -0.828125 C 0.976562 -0.816406 0.96875 -0.796875 0.96875 -0.765625 C 0.96875 -0.734375 0.984375 -0.707031 1.015625 -0.6875 C 1.046875 -0.675781 1.097656 -0.671875 1.171875 -0.671875 L 2.03125 -0.671875 C 2.382812 -0.671875 2.632812 -0.609375 2.78125 -0.484375 C 2.925781 -0.359375 3 -0.1875 3 0.03125 Z M 1.484375 -1.84375 C 1.367188 -1.84375 1.285156 -1.820312 1.234375 -1.78125 C 1.191406 -1.75 1.171875 -1.703125 1.171875 -1.640625 C 1.171875 -1.578125 1.191406 -1.523438 1.234375 -1.484375 C 1.285156 -1.453125 1.367188 -1.4375 1.484375 -1.4375 C 1.597656 -1.4375 1.675781 -1.453125 1.71875 -1.484375 C 1.769531 -1.523438 1.796875 -1.578125 1.796875 -1.640625 C 1.796875 -1.703125 1.769531 -1.75 1.71875 -1.78125 C 1.675781 -1.820312 1.597656 -1.84375 1.484375 -1.84375 Z M 1.546875 0.375 C 1.703125 0.375 1.816406 0.363281 1.890625 0.34375 C 1.960938 0.332031 2.007812 0.3125 2.03125 0.28125 C 2.0625 0.257812 2.078125 0.234375 2.078125 0.203125 C 2.078125 0.179688 2.066406 0.15625 2.046875 0.125 C 2.023438 0.101562 1.976562 0.0859375 1.90625 0.078125 C 1.84375 0.0664062 1.75 0.0625 1.625 0.0625 C 1.46875 0.0625 1.347656 0.0664062 1.265625 0.078125 C 1.191406 0.0976562 1.140625 0.117188 1.109375 0.140625 C 1.085938 0.160156 1.078125 0.1875 1.078125 0.21875 C 1.078125 0.25 1.085938 0.273438 1.109375 0.296875 C 1.140625 0.328125 1.1875 0.347656 1.25 0.359375 C 1.320312 0.367188 1.421875 0.375 1.546875 0.375 Z M 1.546875 0.375 "/></g></g></g><g fill="#a6a6a6" fill-opacity="1"><g transform="translate(16.935535, 21.447498)"><g><path d="M 2 -2.421875 C 2.15625 -2.421875 2.296875 -2.378906 2.421875 -2.296875 C 2.554688 -2.222656 2.660156 -2.109375 2.734375 -1.953125 C 2.804688 -1.796875 2.84375 -1.609375 2.84375 -1.390625 L 2.84375 0 L 1.78125 0 L 1.78125 -1.171875 C 1.78125 -1.296875 1.757812 -1.382812 1.71875 -1.4375 C 1.675781 -1.488281 1.617188 -1.515625 1.546875 -1.515625 C 1.460938 -1.515625 1.394531 -1.484375 1.34375 -1.421875 C 1.289062 -1.359375 1.265625 -1.257812 1.265625 -1.125 L 1.265625 0 L 0.203125 0 L 0.203125 -3.234375 L 1.265625 -3.234375 L 1.265625 -1.875 C 1.335938 -2.0625 1.4375 -2.195312 1.5625 -2.28125 C 1.695312 -2.375 1.84375 -2.421875 2 -2.421875 Z M 2 -2.421875 "/></g></g></g><g fill="#a6a6a6" fill-opacity="1"><g transform="translate(19.935769, 21.447498)"><g><path d="M 1.734375 -1.21875 L 1.734375 -2.359375 L 2.796875 -2.359375 L 2.796875 0 L 2.265625 0 L 1.9375 -0.71875 C 1.882812 -0.4375 1.78125 -0.234375 1.625 -0.109375 C 1.46875 0.015625 1.28125 0.078125 1.0625 0.078125 C 0.800781 0.078125 0.582031 -0.0078125 0.40625 -0.1875 C 0.238281 -0.375 0.15625 -0.632812 0.15625 -0.96875 L 0.15625 -2.359375 L 1.21875 -2.359375 L 1.21875 -1.1875 C 1.21875 -1.050781 1.238281 -0.957031 1.28125 -0.90625 C 1.320312 -0.863281 1.382812 -0.84375 1.46875 -0.84375 C 1.539062 -0.84375 1.601562 -0.875 1.65625 -0.9375 C 1.707031 -1 1.734375 -1.09375 1.734375 -1.21875 Z M 1.734375 -1.21875 "/></g></g></g><g fill="#a6a6a6" fill-opacity="1"><g transform="translate(22.940443, 21.447498)"><g><path d="M 2.015625 -2.421875 C 2.191406 -2.421875 2.351562 -2.375 2.5 -2.28125 C 2.644531 -2.1875 2.757812 -2.050781 2.84375 -1.875 C 2.9375 -1.695312 2.984375 -1.484375 2.984375 -1.234375 L 2.984375 -1.125 C 2.984375 -0.875 2.9375 -0.65625 2.84375 -0.46875 C 2.757812 -0.289062 2.640625 -0.15625 2.484375 -0.0625 C 2.335938 0.03125 2.171875 0.078125 1.984375 0.078125 C 1.753906 0.078125 1.554688 0.0078125 1.390625 -0.125 C 1.222656 -0.257812 1.113281 -0.457031 1.0625 -0.71875 L 0.734375 0 L 0.203125 0 L 0.203125 -3.234375 L 1.265625 -3.234375 L 1.265625 -1.9375 C 1.335938 -2.101562 1.4375 -2.222656 1.5625 -2.296875 C 1.695312 -2.378906 1.847656 -2.421875 2.015625 -2.421875 Z M 1.59375 -0.765625 C 1.6875 -0.765625 1.757812 -0.796875 1.8125 -0.859375 C 1.875 -0.929688 1.90625 -1.035156 1.90625 -1.171875 C 1.90625 -1.316406 1.875 -1.421875 1.8125 -1.484375 C 1.757812 -1.546875 1.6875 -1.578125 1.59375 -1.578125 C 1.488281 -1.578125 1.40625 -1.546875 1.34375 -1.484375 C 1.289062 -1.421875 1.265625 -1.316406 1.265625 -1.171875 C 1.265625 -1.035156 1.289062 -0.929688 1.34375 -0.859375 C 1.40625 -0.796875 1.488281 -0.765625 1.59375 -0.765625 Z M 1.59375 -0.765625 "/></g></g></g></svg>