<svg xmlns="http://www.w3.org/2000/svg" xmlns:xlink="http://www.w3.org/1999/xlink" width="200" zoomAndPan="magnify" viewBox="0 0 150 44.999999" height="60" preserveAspectRatio="xMidYMid meet" version="1.0"><defs><g/><clipPath id="cd047308b9"><path d="M 4.558594 6 L 36.808594 6 L 36.808594 40.5 L 4.558594 40.5 Z M 4.558594 6 " clip-rule="nonzero"/></clipPath></defs><path fill="#1ed891" d="M 26.0625 18.921875 C 26.671875 19.527344 27.660156 19.523438 28.261719 18.914062 C 28.867188 18.300781 28.863281 17.3125 28.253906 16.707031 C 24.601562 13.085938 18.6875 13.109375 15.070312 16.769531 C 11.453125 20.425781 11.480469 26.351562 15.132812 29.972656 C 16.957031 31.785156 19.347656 32.6875 21.734375 32.675781 C 24.121094 32.664062 26.503906 31.742188 28.3125 29.914062 C 28.917969 29.304688 28.914062 28.316406 28.304688 27.710938 C 27.695312 27.105469 26.707031 27.109375 26.105469 27.71875 C 23.691406 30.15625 19.753906 30.175781 17.320312 27.761719 C 14.890625 25.34375 14.871094 21.398438 17.28125 18.960938 C 19.691406 16.527344 23.628906 16.507812 26.0625 18.921875 Z M 26.0625 18.921875 " fill-opacity="1" fill-rule="nonzero"/><g clip-path="url(#cd047308b9)"><path fill="#1ed891" d="M 36.101562 29.886719 C 36.09375 27.804688 35.273438 25.851562 33.796875 24.386719 C 33.1875 23.78125 33.183594 22.792969 33.789062 22.183594 C 36.804688 19.132812 36.785156 14.1875 33.738281 11.164062 C 27.035156 4.511719 16.175781 4.558594 9.535156 11.273438 C 6.320312 14.527344 4.558594 18.839844 4.578125 23.421875 C 4.601562 28 6.398438 32.296875 9.648438 35.519531 C 13 38.847656 17.386719 40.496094 21.769531 40.476562 C 26.152344 40.457031 30.527344 38.765625 33.847656 35.410156 C 35.3125 33.929688 36.109375 31.96875 36.101562 29.886719 Z M 31.636719 33.214844 C 26.203125 38.707031 17.320312 38.75 11.835938 33.304688 C 9.179688 30.667969 7.707031 27.152344 7.691406 23.40625 C 7.671875 19.660156 9.113281 16.128906 11.746094 13.46875 C 17.179688 7.972656 26.0625 7.933594 31.546875 13.378906 C 33.375 15.191406 33.390625 18.160156 31.578125 19.988281 C 29.765625 21.820312 29.78125 24.785156 31.605469 26.601562 C 32.492188 27.480469 32.984375 28.652344 32.988281 29.902344 C 32.996094 31.152344 32.515625 32.328125 31.636719 33.214844 " fill-opacity="1" fill-rule="nonzero"/></g><path fill="#1ed891" d="M 21.464844 25.875 C 21.132812 25.875 20.808594 25.808594 20.5 25.679688 C 20.1875 25.550781 19.914062 25.371094 19.679688 25.132812 C 19.441406 24.894531 19.257812 24.621094 19.128906 24.308594 C 19.003906 24 18.9375 23.675781 18.9375 23.339844 C 18.9375 23.003906 19.003906 22.683594 19.128906 22.371094 C 19.257812 22.0625 19.441406 21.789062 19.679688 21.550781 C 19.914062 21.3125 20.1875 21.128906 20.5 21 C 20.808594 20.875 21.132812 20.808594 21.464844 20.808594 C 21.800781 20.808594 22.125 20.875 22.433594 21 C 22.742188 21.128906 23.015625 21.3125 23.253906 21.550781 C 23.492188 21.789062 23.671875 22.0625 23.800781 22.371094 C 23.929688 22.683594 23.992188 23.003906 23.992188 23.339844 C 23.992188 23.675781 23.929688 24 23.800781 24.308594 C 23.671875 24.621094 23.492188 24.894531 23.253906 25.132812 C 23.015625 25.371094 22.742188 25.550781 22.433594 25.679688 C 22.125 25.808594 21.800781 25.875 21.464844 25.875 Z M 21.464844 25.875 " fill-opacity="1" fill-rule="nonzero"/><g fill="#a6a6a6" fill-opacity="1"><g transform="translate(36.071718, 26.624998)"><g><path d="M 4.109375 0.203125 C 3.265625 0.203125 2.554688 0.0664062 1.984375 -0.203125 C 1.410156 -0.484375 0.972656 -0.875 0.671875 -1.375 C 0.378906 -1.882812 0.234375 -2.460938 0.234375 -3.109375 L 0.234375 -3.4375 C 0.234375 -4.09375 0.378906 -4.664062 0.671875 -5.15625 C 0.972656 -5.65625 1.410156 -6.046875 1.984375 -6.328125 C 2.554688 -6.609375 3.265625 -6.75 4.109375 -6.75 C 4.953125 -6.75 5.65625 -6.609375 6.21875 -6.328125 C 6.789062 -6.046875 7.222656 -5.65625 7.515625 -5.15625 C 7.816406 -4.664062 7.96875 -4.09375 7.96875 -3.4375 L 7.96875 -3.109375 C 7.96875 -2.460938 7.816406 -1.882812 7.515625 -1.375 C 7.222656 -0.875 6.789062 -0.484375 6.21875 -0.203125 C 5.65625 0.0664062 4.953125 0.203125 4.109375 0.203125 Z M 4.109375 -2.09375 C 4.390625 -2.09375 4.609375 -2.179688 4.765625 -2.359375 C 4.929688 -2.546875 5.015625 -2.851562 5.015625 -3.28125 C 5.015625 -3.695312 4.929688 -3.992188 4.765625 -4.171875 C 4.609375 -4.347656 4.390625 -4.4375 4.109375 -4.4375 C 3.828125 -4.4375 3.601562 -4.347656 3.4375 -4.171875 C 3.28125 -3.992188 3.203125 -3.695312 3.203125 -3.28125 C 3.203125 -2.851562 3.28125 -2.546875 3.4375 -2.359375 C 3.601562 -2.179688 3.828125 -2.09375 4.109375 -2.09375 Z M 4.109375 -2.09375 "/></g></g></g><g fill="#a6a6a6" fill-opacity="1"><g transform="translate(44.277669, 26.624998)"><g><path d="M 5 -5.375 L 5 -9.015625 L 7.96875 -9.015625 L 7.96875 0 L 6.5 0 L 5.578125 -2 C 5.421875 -1.269531 5.113281 -0.71875 4.65625 -0.34375 C 4.195312 0.0195312 3.644531 0.203125 3 0.203125 C 2.488281 0.203125 2.019531 0.0703125 1.59375 -0.1875 C 1.175781 -0.445312 0.84375 -0.828125 0.59375 -1.328125 C 0.351562 -1.828125 0.234375 -2.421875 0.234375 -3.109375 L 0.234375 -3.4375 C 0.234375 -4.132812 0.351562 -4.726562 0.59375 -5.21875 C 0.84375 -5.71875 1.171875 -6.097656 1.578125 -6.359375 C 1.992188 -6.617188 2.4375 -6.75 2.90625 -6.75 C 3.375 -6.75 3.785156 -6.632812 4.140625 -6.40625 C 4.503906 -6.1875 4.789062 -5.84375 5 -5.375 Z M 4.09375 -2.140625 C 4.363281 -2.140625 4.582031 -2.226562 4.75 -2.40625 C 4.914062 -2.59375 5 -2.878906 5 -3.265625 C 5 -3.648438 4.914062 -3.929688 4.75 -4.109375 C 4.582031 -4.296875 4.363281 -4.390625 4.09375 -4.390625 C 3.8125 -4.390625 3.59375 -4.300781 3.4375 -4.125 C 3.28125 -3.945312 3.203125 -3.660156 3.203125 -3.265625 C 3.203125 -2.867188 3.28125 -2.582031 3.4375 -2.40625 C 3.59375 -2.226562 3.8125 -2.140625 4.09375 -2.140625 Z M 4.09375 -2.140625 "/></g></g></g><g fill="#a6a6a6" fill-opacity="1"><g transform="translate(52.792107, 26.624998)"><g><path d="M 3.609375 -8.5 C 3.609375 -8.894531 3.472656 -9.21875 3.203125 -9.46875 C 2.941406 -9.71875 2.550781 -9.84375 2.03125 -9.84375 C 1.519531 -9.84375 1.128906 -9.71875 0.859375 -9.46875 C 0.597656 -9.21875 0.46875 -8.894531 0.46875 -8.5 C 0.46875 -8.09375 0.597656 -7.765625 0.859375 -7.515625 C 1.128906 -7.273438 1.519531 -7.15625 2.03125 -7.15625 C 2.550781 -7.15625 2.941406 -7.273438 3.203125 -7.515625 C 3.472656 -7.765625 3.609375 -8.09375 3.609375 -8.5 Z M 3.515625 0 L 0.5625 0 L 0.5625 -6.546875 L 3.515625 -6.546875 Z M 3.515625 0 "/></g></g></g><g fill="#a6a6a6" fill-opacity="1"><g transform="translate(56.864235, 26.624998)"><g><path d="M 5.390625 -6.75 C 6.140625 -6.75 6.75 -6.5 7.21875 -6 C 7.6875 -5.5 7.921875 -4.78125 7.921875 -3.84375 L 7.921875 0 L 4.96875 0 L 4.96875 -3.265625 C 4.96875 -3.617188 4.90625 -3.863281 4.78125 -4 C 4.664062 -4.132812 4.503906 -4.203125 4.296875 -4.203125 C 4.066406 -4.203125 3.878906 -4.113281 3.734375 -3.9375 C 3.585938 -3.769531 3.515625 -3.503906 3.515625 -3.140625 L 3.515625 0 L 0.5625 0 L 0.5625 -6.546875 L 2.03125 -6.546875 L 2.953125 -4.5625 C 3.117188 -5.320312 3.414062 -5.875 3.84375 -6.21875 C 4.269531 -6.570312 4.785156 -6.75 5.390625 -6.75 Z M 5.390625 -6.75 "/></g></g></g><g fill="#a6a6a6" fill-opacity="1"><g transform="translate(65.218262, 26.624998)"><g><path d="M 8.34375 0.09375 C 8.34375 0.59375 8.207031 1.035156 7.9375 1.421875 C 7.675781 1.804688 7.226562 2.109375 6.59375 2.328125 C 5.957031 2.554688 5.082031 2.671875 3.96875 2.671875 C 3.226562 2.671875 2.625 2.628906 2.15625 2.546875 C 1.695312 2.472656 1.335938 2.378906 1.078125 2.265625 C 0.828125 2.148438 0.65625 2.015625 0.5625 1.859375 C 0.46875 1.703125 0.421875 1.546875 0.421875 1.390625 C 0.421875 1.117188 0.523438 0.878906 0.734375 0.671875 C 0.953125 0.472656 1.34375 0.347656 1.90625 0.296875 C 1.363281 0.222656 0.960938 0.046875 0.703125 -0.234375 C 0.453125 -0.515625 0.328125 -0.832031 0.328125 -1.1875 C 0.328125 -1.550781 0.441406 -1.867188 0.671875 -2.140625 C 0.898438 -2.410156 1.289062 -2.597656 1.84375 -2.703125 C 1.300781 -2.890625 0.914062 -3.144531 0.6875 -3.46875 C 0.457031 -3.789062 0.34375 -4.148438 0.34375 -4.546875 L 0.34375 -4.59375 C 0.34375 -5 0.457031 -5.363281 0.6875 -5.6875 C 0.925781 -6.019531 1.320312 -6.28125 1.875 -6.46875 C 2.425781 -6.65625 3.175781 -6.75 4.125 -6.75 C 4.257812 -6.75 4.394531 -6.742188 4.53125 -6.734375 C 4.664062 -6.734375 4.789062 -6.734375 4.90625 -6.734375 C 4.957031 -7.515625 5.1875 -8.109375 5.59375 -8.515625 C 6 -8.921875 6.492188 -9.125 7.078125 -9.125 C 7.273438 -9.125 7.4375 -9.113281 7.5625 -9.09375 C 7.695312 -9.070312 7.804688 -9.046875 7.890625 -9.015625 L 7.890625 -6.78125 C 7.765625 -6.789062 7.609375 -6.800781 7.421875 -6.8125 C 7.242188 -6.832031 7.050781 -6.84375 6.84375 -6.84375 C 6.601562 -6.84375 6.410156 -6.816406 6.265625 -6.765625 C 6.117188 -6.722656 6.015625 -6.660156 5.953125 -6.578125 C 6.660156 -6.410156 7.160156 -6.148438 7.453125 -5.796875 C 7.742188 -5.453125 7.890625 -5.050781 7.890625 -4.59375 L 7.890625 -4.53125 C 7.890625 -4.132812 7.769531 -3.773438 7.53125 -3.453125 C 7.300781 -3.128906 6.910156 -2.867188 6.359375 -2.671875 C 5.816406 -2.484375 5.070312 -2.390625 4.125 -2.390625 L 3.21875 -2.390625 C 3.019531 -2.390625 2.882812 -2.367188 2.8125 -2.328125 C 2.75 -2.285156 2.71875 -2.21875 2.71875 -2.125 C 2.71875 -2.039062 2.753906 -1.972656 2.828125 -1.921875 C 2.898438 -1.878906 3.039062 -1.859375 3.25 -1.859375 L 5.65625 -1.859375 C 6.625 -1.859375 7.3125 -1.679688 7.71875 -1.328125 C 8.132812 -0.984375 8.34375 -0.507812 8.34375 0.09375 Z M 4.125 -5.140625 C 3.800781 -5.140625 3.578125 -5.085938 3.453125 -4.984375 C 3.328125 -4.890625 3.265625 -4.75 3.265625 -4.5625 C 3.265625 -4.394531 3.328125 -4.253906 3.453125 -4.140625 C 3.578125 -4.035156 3.800781 -3.984375 4.125 -3.984375 C 4.4375 -3.984375 4.65625 -4.035156 4.78125 -4.140625 C 4.914062 -4.253906 4.984375 -4.394531 4.984375 -4.5625 C 4.984375 -4.75 4.914062 -4.890625 4.78125 -4.984375 C 4.65625 -5.085938 4.4375 -5.140625 4.125 -5.140625 Z M 4.3125 1.0625 C 4.726562 1.0625 5.035156 1.035156 5.234375 0.984375 C 5.441406 0.929688 5.582031 0.867188 5.65625 0.796875 C 5.738281 0.722656 5.78125 0.648438 5.78125 0.578125 C 5.78125 0.492188 5.75 0.421875 5.6875 0.359375 C 5.632812 0.296875 5.515625 0.242188 5.328125 0.203125 C 5.148438 0.171875 4.875 0.15625 4.5 0.15625 C 4.0625 0.15625 3.734375 0.175781 3.515625 0.21875 C 3.304688 0.257812 3.171875 0.316406 3.109375 0.390625 C 3.046875 0.460938 3.015625 0.535156 3.015625 0.609375 C 3.015625 0.691406 3.046875 0.765625 3.109375 0.828125 C 3.171875 0.898438 3.296875 0.957031 3.484375 1 C 3.671875 1.039062 3.945312 1.0625 4.3125 1.0625 Z M 4.3125 1.0625 "/></g></g></g><g fill="#a6a6a6" fill-opacity="1"><g transform="translate(73.559951, 26.624998)"><g><path d="M 5.5625 -6.75 C 6.007812 -6.75 6.410156 -6.640625 6.765625 -6.421875 C 7.117188 -6.203125 7.394531 -5.875 7.59375 -5.4375 C 7.800781 -5.007812 7.90625 -4.476562 7.90625 -3.84375 L 7.90625 0 L 4.96875 0 L 4.96875 -3.265625 C 4.96875 -3.617188 4.90625 -3.863281 4.78125 -4 C 4.664062 -4.132812 4.503906 -4.203125 4.296875 -4.203125 C 4.066406 -4.203125 3.878906 -4.113281 3.734375 -3.9375 C 3.585938 -3.769531 3.515625 -3.503906 3.515625 -3.140625 L 3.515625 0 L 0.5625 0 L 0.5625 -9.015625 L 3.515625 -9.015625 L 3.515625 -5.234375 C 3.710938 -5.742188 3.992188 -6.125 4.359375 -6.375 C 4.722656 -6.625 5.125 -6.75 5.5625 -6.75 Z M 5.5625 -6.75 "/></g></g></g><g fill="#a6a6a6" fill-opacity="1"><g transform="translate(81.901641, 26.624998)"><g><path d="M 4.828125 -3.40625 L 4.828125 -6.546875 L 7.78125 -6.546875 L 7.78125 0 L 6.3125 0 L 5.390625 -1.984375 C 5.234375 -1.222656 4.941406 -0.664062 4.515625 -0.3125 C 4.085938 0.03125 3.570312 0.203125 2.96875 0.203125 C 2.21875 0.203125 1.609375 -0.046875 1.140625 -0.546875 C 0.671875 -1.046875 0.4375 -1.757812 0.4375 -2.6875 L 0.4375 -6.546875 L 3.390625 -6.546875 L 3.390625 -3.28125 C 3.390625 -2.925781 3.445312 -2.679688 3.5625 -2.546875 C 3.675781 -2.410156 3.847656 -2.34375 4.078125 -2.34375 C 4.285156 -2.34375 4.460938 -2.425781 4.609375 -2.59375 C 4.753906 -2.757812 4.828125 -3.03125 4.828125 -3.40625 Z M 4.828125 -3.40625 "/></g></g></g><g fill="#a6a6a6" fill-opacity="1"><g transform="translate(90.255667, 26.624998)"><g><path d="M 5.609375 -6.75 C 6.085938 -6.75 6.53125 -6.617188 6.9375 -6.359375 C 7.34375 -6.097656 7.664062 -5.71875 7.90625 -5.21875 C 8.15625 -4.726562 8.28125 -4.132812 8.28125 -3.4375 L 8.28125 -3.109375 C 8.28125 -2.421875 8.15625 -1.828125 7.90625 -1.328125 C 7.664062 -0.828125 7.332031 -0.445312 6.90625 -0.1875 C 6.488281 0.0703125 6.023438 0.203125 5.515625 0.203125 C 4.867188 0.203125 4.316406 0.0195312 3.859375 -0.34375 C 3.410156 -0.71875 3.101562 -1.269531 2.9375 -2 L 2.03125 0 L 0.5625 0 L 0.5625 -9.015625 L 3.515625 -9.015625 L 3.515625 -5.375 C 3.734375 -5.84375 4.019531 -6.1875 4.375 -6.40625 C 4.738281 -6.632812 5.148438 -6.75 5.609375 -6.75 Z M 4.421875 -2.140625 C 4.703125 -2.140625 4.921875 -2.226562 5.078125 -2.40625 C 5.234375 -2.582031 5.3125 -2.867188 5.3125 -3.265625 C 5.3125 -3.660156 5.234375 -3.945312 5.078125 -4.125 C 4.921875 -4.300781 4.703125 -4.390625 4.421875 -4.390625 C 4.148438 -4.390625 3.929688 -4.296875 3.765625 -4.109375 C 3.597656 -3.929688 3.515625 -3.648438 3.515625 -3.265625 C 3.515625 -2.878906 3.597656 -2.59375 3.765625 -2.40625 C 3.929688 -2.226562 4.148438 -2.140625 4.421875 -2.140625 Z M 4.421875 -2.140625 "/></g></g></g></svg>