<svg xmlns="http://www.w3.org/2000/svg" xmlns:xlink="http://www.w3.org/1999/xlink" width="128" zoomAndPan="magnify" viewBox="0 0 96 95.999999" height="128" preserveAspectRatio="xMidYMid meet" version="1.0"><defs><g/><clipPath id="e94a0911ac"><path d="M 9.816406 28 L 44 28 L 44 65.21875 L 9.816406 65.21875 Z M 9.816406 28 " clip-rule="nonzero"/></clipPath></defs><rect x="-9.6" width="115.2" fill="#ffffff" y="-9.6" height="115.199999" fill-opacity="1"/><rect x="-9.6" width="115.2" fill="#000000" y="-9.6" height="115.199999" fill-opacity="1"/><path fill="#1ed891" d="M 32.820312 41.84375 C 33.472656 42.5 34.527344 42.496094 35.171875 41.835938 C 35.820312 41.171875 35.8125 40.105469 35.160156 39.445312 C 31.253906 35.523438 24.929688 35.550781 21.058594 39.511719 C 17.191406 43.472656 17.21875 49.890625 21.125 53.816406 C 23.078125 55.777344 25.632812 56.753906 28.1875 56.742188 C 30.742188 56.730469 33.292969 55.730469 35.226562 53.75 C 35.875 53.089844 35.867188 52.019531 35.214844 51.363281 C 34.5625 50.707031 33.507812 50.710938 32.863281 51.375 C 30.285156 54.011719 26.070312 54.03125 23.46875 51.417969 C 20.867188 48.800781 20.847656 44.527344 23.425781 41.886719 C 26.003906 39.25 30.214844 39.230469 32.820312 41.84375 Z M 32.820312 41.84375 " fill-opacity="1" fill-rule="nonzero"/><g clip-path="url(#e94a0911ac)"><path fill="#1ed891" d="M 43.558594 53.722656 C 43.546875 51.46875 42.671875 49.351562 41.09375 47.765625 C 40.441406 47.109375 40.4375 46.039062 41.082031 45.378906 C 44.3125 42.070312 44.285156 36.714844 41.027344 33.441406 C 33.859375 26.234375 22.242188 26.289062 15.136719 33.5625 C 11.695312 37.085938 9.8125 41.757812 9.835938 46.71875 C 9.859375 51.675781 11.785156 56.332031 15.257812 59.824219 C 18.84375 63.425781 23.539062 65.214844 28.226562 65.191406 C 32.914062 65.171875 37.59375 63.339844 41.144531 59.703125 C 42.710938 58.101562 43.566406 55.976562 43.558594 53.722656 Z M 38.78125 57.324219 C 32.96875 63.277344 23.46875 63.320312 17.601562 57.425781 C 14.757812 54.566406 13.183594 50.757812 13.164062 46.703125 C 13.144531 42.644531 14.6875 38.820312 17.503906 35.9375 C 23.316406 29.988281 32.820312 29.941406 38.683594 35.839844 C 40.640625 37.804688 40.65625 41.019531 38.71875 43 C 36.78125 44.984375 36.792969 48.195312 38.75 50.164062 C 39.695312 51.113281 40.222656 52.386719 40.226562 53.738281 C 40.234375 55.089844 39.722656 56.363281 38.78125 57.324219 " fill-opacity="1" fill-rule="nonzero"/></g><path fill="#1ed891" d="M 27.902344 49.375 C 27.542969 49.375 27.199219 49.304688 26.867188 49.164062 C 26.535156 49.027344 26.242188 48.828125 25.988281 48.570312 C 25.734375 48.3125 25.539062 48.015625 25.402344 47.679688 C 25.265625 47.34375 25.195312 46.996094 25.195312 46.632812 C 25.195312 46.269531 25.265625 45.917969 25.402344 45.582031 C 25.539062 45.246094 25.734375 44.949219 25.988281 44.691406 C 26.242188 44.433594 26.535156 44.238281 26.867188 44.097656 C 27.199219 43.957031 27.542969 43.890625 27.902344 43.890625 C 28.257812 43.890625 28.605469 43.957031 28.9375 44.097656 C 29.265625 44.238281 29.558594 44.433594 29.8125 44.691406 C 30.066406 44.949219 30.261719 45.246094 30.398438 45.582031 C 30.535156 45.917969 30.605469 46.269531 30.605469 46.632812 C 30.605469 46.996094 30.535156 47.34375 30.398438 47.679688 C 30.261719 48.015625 30.066406 48.3125 29.8125 48.570312 C 29.558594 48.828125 29.265625 49.027344 28.9375 49.164062 C 28.605469 49.304688 28.257812 49.375 27.902344 49.375 Z M 27.902344 49.375 " fill-opacity="1" fill-rule="nonzero"/><g fill="#a6a6a6" fill-opacity="1"><g transform="translate(44.344291, 47.070252)"><g><path d="M 4.046875 0.203125 C 3.222656 0.203125 2.523438 0.0664062 1.953125 -0.203125 C 1.390625 -0.484375 0.960938 -0.867188 0.671875 -1.359375 C 0.378906 -1.859375 0.234375 -2.425781 0.234375 -3.0625 L 0.234375 -3.390625 C 0.234375 -4.035156 0.378906 -4.601562 0.671875 -5.09375 C 0.960938 -5.582031 1.390625 -5.960938 1.953125 -6.234375 C 2.523438 -6.515625 3.222656 -6.65625 4.046875 -6.65625 C 4.878906 -6.65625 5.578125 -6.515625 6.140625 -6.234375 C 6.703125 -5.960938 7.128906 -5.582031 7.421875 -5.09375 C 7.710938 -4.601562 7.859375 -4.035156 7.859375 -3.390625 L 7.859375 -3.0625 C 7.859375 -2.425781 7.710938 -1.859375 7.421875 -1.359375 C 7.128906 -0.867188 6.703125 -0.484375 6.140625 -0.203125 C 5.578125 0.0664062 4.878906 0.203125 4.046875 0.203125 Z M 4.046875 -2.0625 C 4.328125 -2.0625 4.546875 -2.148438 4.703125 -2.328125 C 4.859375 -2.515625 4.9375 -2.816406 4.9375 -3.234375 C 4.9375 -3.640625 4.859375 -3.929688 4.703125 -4.109375 C 4.546875 -4.285156 4.328125 -4.375 4.046875 -4.375 C 3.773438 -4.375 3.554688 -4.285156 3.390625 -4.109375 C 3.234375 -3.929688 3.15625 -3.640625 3.15625 -3.234375 C 3.15625 -2.816406 3.234375 -2.515625 3.390625 -2.328125 C 3.554688 -2.148438 3.773438 -2.0625 4.046875 -2.0625 Z M 4.046875 -2.0625 "/></g></g></g><g fill="#a6a6a6" fill-opacity="1"><g transform="translate(52.433352, 47.070252)"><g><path d="M 4.921875 -5.3125 L 4.921875 -8.890625 L 7.84375 -8.890625 L 7.84375 0 L 6.40625 0 L 5.5 -1.96875 C 5.34375 -1.25 5.039062 -0.707031 4.59375 -0.34375 C 4.144531 0.0195312 3.597656 0.203125 2.953125 0.203125 C 2.453125 0.203125 1.992188 0.0703125 1.578125 -0.1875 C 1.171875 -0.445312 0.84375 -0.820312 0.59375 -1.3125 C 0.351562 -1.800781 0.234375 -2.382812 0.234375 -3.0625 L 0.234375 -3.390625 C 0.234375 -4.078125 0.351562 -4.660156 0.59375 -5.140625 C 0.84375 -5.628906 1.164062 -6.003906 1.5625 -6.265625 C 1.96875 -6.523438 2.40625 -6.65625 2.875 -6.65625 C 3.320312 -6.65625 3.722656 -6.539062 4.078125 -6.3125 C 4.441406 -6.09375 4.722656 -5.757812 4.921875 -5.3125 Z M 4.046875 -2.125 C 4.304688 -2.125 4.515625 -2.210938 4.671875 -2.390625 C 4.835938 -2.566406 4.921875 -2.84375 4.921875 -3.21875 C 4.921875 -3.601562 4.835938 -3.882812 4.671875 -4.0625 C 4.515625 -4.238281 4.304688 -4.328125 4.046875 -4.328125 C 3.765625 -4.328125 3.546875 -4.238281 3.390625 -4.0625 C 3.234375 -3.894531 3.15625 -3.613281 3.15625 -3.21875 C 3.15625 -2.832031 3.234375 -2.550781 3.390625 -2.375 C 3.546875 -2.207031 3.765625 -2.125 4.046875 -2.125 Z M 4.046875 -2.125 "/></g></g></g><g fill="#a6a6a6" fill-opacity="1"><g transform="translate(60.826506, 47.070252)"><g><path d="M 3.546875 -8.375 C 3.546875 -8.769531 3.414062 -9.085938 3.15625 -9.328125 C 2.90625 -9.578125 2.523438 -9.703125 2.015625 -9.703125 C 1.503906 -9.703125 1.117188 -9.578125 0.859375 -9.328125 C 0.597656 -9.085938 0.46875 -8.769531 0.46875 -8.375 C 0.46875 -7.976562 0.597656 -7.660156 0.859375 -7.421875 C 1.117188 -7.179688 1.503906 -7.0625 2.015625 -7.0625 C 2.523438 -7.0625 2.90625 -7.179688 3.15625 -7.421875 C 3.414062 -7.660156 3.546875 -7.976562 3.546875 -8.375 Z M 3.46875 0 L 0.546875 0 L 0.546875 -6.453125 L 3.46875 -6.453125 Z M 3.46875 0 "/></g></g></g><g fill="#a6a6a6" fill-opacity="1"><g transform="translate(64.840624, 47.070252)"><g><path d="M 5.3125 -6.65625 C 6.050781 -6.65625 6.648438 -6.40625 7.109375 -5.90625 C 7.578125 -5.414062 7.8125 -4.710938 7.8125 -3.796875 L 7.8125 0 L 4.890625 0 L 4.890625 -3.21875 C 4.890625 -3.5625 4.832031 -3.800781 4.71875 -3.9375 C 4.601562 -4.070312 4.441406 -4.140625 4.234375 -4.140625 C 4.003906 -4.140625 3.816406 -4.054688 3.671875 -3.890625 C 3.535156 -3.722656 3.46875 -3.457031 3.46875 -3.09375 L 3.46875 0 L 0.546875 0 L 0.546875 -6.453125 L 2.015625 -6.453125 L 2.90625 -4.484375 C 3.070312 -5.242188 3.363281 -5.796875 3.78125 -6.140625 C 4.207031 -6.484375 4.71875 -6.65625 5.3125 -6.65625 Z M 5.3125 -6.65625 "/></g></g></g><g fill="#a6a6a6" fill-opacity="1"><g transform="translate(73.075655, 47.070252)"><g><path d="M 8.234375 0.078125 C 8.234375 0.578125 8.097656 1.015625 7.828125 1.390625 C 7.566406 1.773438 7.125 2.078125 6.5 2.296875 C 5.875 2.515625 5.015625 2.625 3.921875 2.625 C 3.191406 2.625 2.597656 2.585938 2.140625 2.515625 C 1.679688 2.441406 1.320312 2.347656 1.0625 2.234375 C 0.8125 2.117188 0.640625 1.984375 0.546875 1.828125 C 0.453125 1.679688 0.40625 1.53125 0.40625 1.375 C 0.40625 1.101562 0.507812 0.867188 0.71875 0.671875 C 0.9375 0.472656 1.328125 0.347656 1.890625 0.296875 C 1.347656 0.222656 0.945312 0.0507812 0.6875 -0.21875 C 0.4375 -0.5 0.3125 -0.816406 0.3125 -1.171875 C 0.3125 -1.523438 0.425781 -1.832031 0.65625 -2.09375 C 0.882812 -2.363281 1.273438 -2.554688 1.828125 -2.671875 C 1.285156 -2.859375 0.898438 -3.109375 0.671875 -3.421875 C 0.453125 -3.734375 0.34375 -4.085938 0.34375 -4.484375 L 0.34375 -4.53125 C 0.34375 -4.9375 0.457031 -5.296875 0.6875 -5.609375 C 0.914062 -5.929688 1.300781 -6.1875 1.84375 -6.375 C 2.394531 -6.5625 3.132812 -6.65625 4.0625 -6.65625 C 4.195312 -6.65625 4.328125 -6.648438 4.453125 -6.640625 C 4.585938 -6.640625 4.71875 -6.640625 4.84375 -6.640625 C 4.894531 -7.410156 5.117188 -7.992188 5.515625 -8.390625 C 5.910156 -8.796875 6.394531 -9 6.96875 -9 C 7.164062 -9 7.328125 -8.988281 7.453125 -8.96875 C 7.585938 -8.945312 7.695312 -8.921875 7.78125 -8.890625 L 7.78125 -6.6875 C 7.65625 -6.695312 7.503906 -6.707031 7.328125 -6.71875 C 7.148438 -6.738281 6.957031 -6.75 6.75 -6.75 C 6.507812 -6.75 6.316406 -6.722656 6.171875 -6.671875 C 6.035156 -6.628906 5.929688 -6.566406 5.859375 -6.484375 C 6.554688 -6.328125 7.050781 -6.070312 7.34375 -5.71875 C 7.632812 -5.375 7.78125 -4.976562 7.78125 -4.53125 L 7.78125 -4.46875 C 7.78125 -4.082031 7.660156 -3.726562 7.421875 -3.40625 C 7.191406 -3.082031 6.804688 -2.828125 6.265625 -2.640625 C 5.734375 -2.453125 5 -2.359375 4.0625 -2.359375 L 3.171875 -2.359375 C 2.984375 -2.359375 2.851562 -2.335938 2.78125 -2.296875 C 2.707031 -2.253906 2.671875 -2.1875 2.671875 -2.09375 C 2.671875 -2.007812 2.707031 -1.945312 2.78125 -1.90625 C 2.851562 -1.863281 2.992188 -1.84375 3.203125 -1.84375 L 5.578125 -1.84375 C 6.535156 -1.84375 7.21875 -1.664062 7.625 -1.3125 C 8.03125 -0.96875 8.234375 -0.503906 8.234375 0.078125 Z M 4.0625 -5.078125 C 3.75 -5.078125 3.53125 -5.023438 3.40625 -4.921875 C 3.28125 -4.816406 3.21875 -4.675781 3.21875 -4.5 C 3.21875 -4.332031 3.28125 -4.195312 3.40625 -4.09375 C 3.53125 -3.988281 3.75 -3.9375 4.0625 -3.9375 C 4.375 -3.9375 4.59375 -3.988281 4.71875 -4.09375 C 4.851562 -4.195312 4.921875 -4.332031 4.921875 -4.5 C 4.921875 -4.675781 4.851562 -4.816406 4.71875 -4.921875 C 4.59375 -5.023438 4.375 -5.078125 4.0625 -5.078125 Z M 4.265625 1.046875 C 4.671875 1.046875 4.972656 1.019531 5.171875 0.96875 C 5.378906 0.925781 5.519531 0.867188 5.59375 0.796875 C 5.664062 0.722656 5.703125 0.648438 5.703125 0.578125 C 5.703125 0.492188 5.671875 0.421875 5.609375 0.359375 C 5.554688 0.296875 5.4375 0.242188 5.25 0.203125 C 5.070312 0.171875 4.800781 0.15625 4.4375 0.15625 C 4.007812 0.15625 3.691406 0.175781 3.484375 0.21875 C 3.273438 0.257812 3.132812 0.3125 3.0625 0.375 C 3 0.445312 2.96875 0.523438 2.96875 0.609375 C 2.96875 0.679688 3 0.75 3.0625 0.8125 C 3.125 0.882812 3.25 0.941406 3.4375 0.984375 C 3.625 1.023438 3.898438 1.046875 4.265625 1.046875 Z M 4.265625 1.046875 "/></g></g></g><g fill="#a6a6a6" fill-opacity="1"><g transform="translate(45.082572, 58.78203)"><g><path d="M 5.484375 -6.65625 C 5.921875 -6.65625 6.3125 -6.546875 6.65625 -6.328125 C 7.007812 -6.117188 7.285156 -5.800781 7.484375 -5.375 C 7.691406 -4.945312 7.796875 -4.421875 7.796875 -3.796875 L 7.796875 0 L 4.890625 0 L 4.890625 -3.21875 C 4.890625 -3.5625 4.832031 -3.800781 4.71875 -3.9375 C 4.601562 -4.070312 4.441406 -4.140625 4.234375 -4.140625 C 4.003906 -4.140625 3.816406 -4.054688 3.671875 -3.890625 C 3.535156 -3.722656 3.46875 -3.457031 3.46875 -3.09375 L 3.46875 0 L 0.546875 0 L 0.546875 -8.890625 L 3.46875 -8.890625 L 3.46875 -5.15625 C 3.664062 -5.664062 3.941406 -6.039062 4.296875 -6.28125 C 4.648438 -6.53125 5.046875 -6.65625 5.484375 -6.65625 Z M 5.484375 -6.65625 "/></g></g></g><g fill="#a6a6a6" fill-opacity="1"><g transform="translate(53.305438, 58.78203)"><g><path d="M 4.765625 -3.359375 L 4.765625 -6.453125 L 7.6875 -6.453125 L 7.6875 0 L 6.234375 0 L 5.3125 -1.953125 C 5.164062 -1.203125 4.878906 -0.65625 4.453125 -0.3125 C 4.035156 0.03125 3.53125 0.203125 2.9375 0.203125 C 2.195312 0.203125 1.59375 -0.0390625 1.125 -0.53125 C 0.664062 -1.03125 0.4375 -1.738281 0.4375 -2.65625 L 0.4375 -6.453125 L 3.34375 -6.453125 L 3.34375 -3.234375 C 3.34375 -2.890625 3.394531 -2.648438 3.5 -2.515625 C 3.613281 -2.378906 3.785156 -2.3125 4.015625 -2.3125 C 4.222656 -2.3125 4.398438 -2.394531 4.546875 -2.5625 C 4.691406 -2.726562 4.765625 -2.992188 4.765625 -3.359375 Z M 4.765625 -3.359375 "/></g></g></g><g fill="#a6a6a6" fill-opacity="1"><g transform="translate(61.540468, 58.78203)"><g><path d="M 5.53125 -6.65625 C 6.007812 -6.65625 6.445312 -6.523438 6.84375 -6.265625 C 7.238281 -6.003906 7.554688 -5.628906 7.796875 -5.140625 C 8.046875 -4.660156 8.171875 -4.078125 8.171875 -3.390625 L 8.171875 -3.0625 C 8.171875 -2.382812 8.046875 -1.800781 7.796875 -1.3125 C 7.554688 -0.820312 7.226562 -0.445312 6.8125 -0.1875 C 6.40625 0.0703125 5.945312 0.203125 5.4375 0.203125 C 4.800781 0.203125 4.257812 0.0195312 3.8125 -0.34375 C 3.363281 -0.707031 3.054688 -1.25 2.890625 -1.96875 L 2 0 L 0.546875 0 L 0.546875 -8.890625 L 3.46875 -8.890625 L 3.46875 -5.3125 C 3.675781 -5.757812 3.957031 -6.09375 4.3125 -6.3125 C 4.675781 -6.539062 5.082031 -6.65625 5.53125 -6.65625 Z M 4.359375 -2.125 C 4.628906 -2.125 4.84375 -2.207031 5 -2.375 C 5.164062 -2.550781 5.25 -2.832031 5.25 -3.21875 C 5.25 -3.613281 5.164062 -3.894531 5 -4.0625 C 4.84375 -4.238281 4.628906 -4.328125 4.359375 -4.328125 C 4.085938 -4.328125 3.867188 -4.238281 3.703125 -4.0625 C 3.546875 -3.882812 3.46875 -3.601562 3.46875 -3.21875 C 3.46875 -2.84375 3.546875 -2.566406 3.703125 -2.390625 C 3.867188 -2.210938 4.085938 -2.125 4.359375 -2.125 Z M 4.359375 -2.125 "/></g></g></g></svg>